<mxfile host="app.diagrams.net" agent="Mozilla/5.0 (Macintosh; Intel Mac OS X 10_15_7) AppleWebKit/537.36 (KHTML, like Gecko) Chrome/134.0.0.0 Safari/537.36 Edg/134.0.0.0" version="26.1.3">
  <diagram name="Page-1" id="7PXyZJpgMP_a-c01z-vP">
    <mxGraphModel dx="3822" dy="2328" grid="1" gridSize="10" guides="1" tooltips="1" connect="1" arrows="1" fold="1" page="1" pageScale="1" pageWidth="850" pageHeight="1100" math="0" shadow="0">
      <root>
        <mxCell id="0" />
        <mxCell id="1" parent="0" />
        <mxCell id="6PLrGCG0lRcQRCeHkaM_-90" value="&lt;p style=&quot;margin:0px;margin-top:4px;text-align:center;&quot;&gt;&lt;i&gt;&amp;lt;&amp;lt;entity&amp;gt;&amp;gt;&lt;/i&gt;&lt;br&gt;&lt;b&gt;Subject&lt;/b&gt;&lt;/p&gt;&lt;hr size=&quot;1&quot; style=&quot;border-style:solid;&quot;&gt;&lt;p style=&quot;margin:0px;margin-left:4px;&quot;&gt;- id: int&lt;br&gt;- name: string&lt;/p&gt;&lt;p style=&quot;margin:0px;margin-left:4px;&quot;&gt;- description: string&lt;/p&gt;&lt;p style=&quot;margin:0px;margin-left:4px;&quot;&gt;- courses: List&amp;lt;Course&amp;gt;&lt;/p&gt;&lt;p style=&quot;margin:0px;margin-left:4px;&quot;&gt;- ebooks: List&amp;lt;Ebook&amp;gt;&lt;/p&gt;&lt;hr size=&quot;1&quot; style=&quot;border-style:solid;&quot;&gt;&lt;p style=&quot;margin:0px;margin-left:4px;&quot;&gt;&lt;br&gt;&lt;/p&gt;" style="verticalAlign=top;align=left;overflow=fill;html=1;whiteSpace=wrap;" vertex="1" parent="1">
          <mxGeometry x="-370" y="108.75" width="190" height="145" as="geometry" />
        </mxCell>
        <mxCell id="6PLrGCG0lRcQRCeHkaM_-91" value="&lt;p style=&quot;margin:0px;margin-top:4px;text-align:center;&quot;&gt;&lt;i&gt;&amp;lt;&amp;lt;entity&amp;gt;&amp;gt;&lt;/i&gt;&lt;br&gt;&lt;b&gt;Course&lt;/b&gt;&lt;/p&gt;&lt;hr size=&quot;1&quot; style=&quot;border-style:solid;&quot;&gt;&lt;p style=&quot;margin:0px;margin-left:4px;&quot;&gt;- id: int&lt;br&gt;- courseName: string&lt;/p&gt;&lt;p style=&quot;margin:0px;margin-left:4px;&quot;&gt;- courseDescription: string&lt;/p&gt;&lt;p style=&quot;margin:0px;margin-left:4px;&quot;&gt;- instructor: Teacher&lt;/p&gt;&lt;p style=&quot;margin:0px;margin-left:4px;&quot;&gt;- videos: List&amp;lt;Video&amp;gt;&lt;/p&gt;&lt;p style=&quot;margin:0px;margin-left:4px;&quot;&gt;- exams: List&amp;lt;Exam&amp;gt;&lt;/p&gt;&lt;p style=&quot;margin:0px;margin-left:4px;&quot;&gt;- status: string&lt;/p&gt;&lt;hr size=&quot;1&quot; style=&quot;border-style:solid;&quot;&gt;&lt;p style=&quot;margin:0px;margin-left:4px;&quot;&gt;&lt;br&gt;&lt;/p&gt;" style="verticalAlign=top;align=left;overflow=fill;html=1;whiteSpace=wrap;" vertex="1" parent="1">
          <mxGeometry x="-700" y="321.25" width="190" height="180" as="geometry" />
        </mxCell>
        <mxCell id="6PLrGCG0lRcQRCeHkaM_-92" value="&lt;p style=&quot;margin:0px;margin-top:4px;text-align:center;&quot;&gt;&lt;i&gt;&amp;lt;&amp;lt;entity&amp;gt;&amp;gt;&lt;/i&gt;&lt;br&gt;&lt;b&gt;Ebook&lt;/b&gt;&lt;/p&gt;&lt;hr size=&quot;1&quot; style=&quot;border-style:solid;&quot;&gt;&lt;p style=&quot;margin:0px;margin-left:4px;&quot;&gt;- id: int&lt;br&gt;- title: string&lt;/p&gt;&lt;p style=&quot;margin:0px;margin-left:4px;&quot;&gt;&lt;span style=&quot;background-color: transparent; color: light-dark(rgb(0, 0, 0), rgb(255, 255, 255));&quot;&gt;- author: string&lt;/span&gt;&lt;/p&gt;&lt;p style=&quot;margin:0px;margin-left:4px;&quot;&gt;&lt;span style=&quot;background-color: transparent; color: light-dark(rgb(0, 0, 0), rgb(255, 255, 255));&quot;&gt;- filePath: string&lt;/span&gt;&lt;/p&gt;&lt;p style=&quot;margin:0px;margin-left:4px;&quot;&gt;&lt;span style=&quot;background-color: transparent; color: light-dark(rgb(0, 0, 0), rgb(255, 255, 255));&quot;&gt;- subject: Subject&lt;/span&gt;&lt;/p&gt;&lt;div&gt;&lt;p style=&quot;margin: 0px 0px 0px 4px;&quot;&gt;-&amp;nbsp;&lt;span style=&quot;background-color: transparent; color: light-dark(rgb(0, 0, 0), rgb(255, 255, 255));&quot;&gt;referenceResource: List&amp;lt;ReferenceResource&amp;gt;&lt;/span&gt;&lt;/p&gt;&lt;p style=&quot;margin: 0px 0px 0px 4px;&quot;&gt;&lt;span style=&quot;background-color: transparent; color: light-dark(rgb(0, 0, 0), rgb(255, 255, 255));&quot;&gt;- status: string&lt;/span&gt;&lt;/p&gt;&lt;/div&gt;&lt;hr size=&quot;1&quot; style=&quot;border-style:solid;&quot;&gt;&lt;p style=&quot;margin:0px;margin-left:4px;&quot;&gt;+ read()&lt;/p&gt;" style="verticalAlign=top;align=left;overflow=fill;html=1;whiteSpace=wrap;" vertex="1" parent="1">
          <mxGeometry x="-425" y="510" width="370" height="180" as="geometry" />
        </mxCell>
        <mxCell id="6PLrGCG0lRcQRCeHkaM_-93" value="&lt;p style=&quot;margin:0px;margin-top:4px;text-align:center;&quot;&gt;&lt;i&gt;&amp;lt;&amp;lt;entity&amp;gt;&amp;gt;&lt;/i&gt;&lt;br&gt;&lt;b&gt;Exam&lt;/b&gt;&lt;/p&gt;&lt;hr size=&quot;1&quot; style=&quot;border-style:solid;&quot;&gt;&lt;p style=&quot;margin:0px;margin-left:4px;&quot;&gt;- id: int&lt;br&gt;- title: string&lt;/p&gt;&lt;p style=&quot;margin:0px;margin-left:4px;&quot;&gt;- course: Course&lt;/p&gt;&lt;p style=&quot;margin:0px;margin-left:4px;&quot;&gt;- questions: List&amp;lt;Question&amp;gt;&lt;/p&gt;&lt;p style=&quot;margin:0px;margin-left:4px;&quot;&gt;- duration: int&lt;/p&gt;&lt;p style=&quot;margin:0px;margin-left:4px;&quot;&gt;- status: string&lt;br&gt;&lt;/p&gt;&lt;hr size=&quot;1&quot; style=&quot;border-style:solid;&quot;&gt;&lt;p style=&quot;margin:0px;margin-left:4px;&quot;&gt;+ calculateScore()&lt;br&gt;+ generateReport()&lt;/p&gt;" style="verticalAlign=top;align=left;overflow=fill;html=1;whiteSpace=wrap;" vertex="1" parent="1">
          <mxGeometry x="-1020" y="440" width="190" height="190" as="geometry" />
        </mxCell>
        <mxCell id="6PLrGCG0lRcQRCeHkaM_-96" value="&lt;p style=&quot;margin:0px;margin-top:4px;text-align:center;&quot;&gt;&lt;i&gt;&amp;lt;&amp;lt;entity&amp;gt;&amp;gt;&lt;/i&gt;&lt;br&gt;&lt;b&gt;Video&lt;/b&gt;&lt;/p&gt;&lt;hr size=&quot;1&quot; style=&quot;border-style:solid;&quot;&gt;&lt;p style=&quot;margin:0px;margin-left:4px;&quot;&gt;- id: int&lt;br&gt;- title: string&lt;/p&gt;&lt;p style=&quot;margin:0px;margin-left:4px;&quot;&gt;- videoUrl: string&lt;/p&gt;&lt;p style=&quot;margin:0px;margin-left:4px;&quot;&gt;- referenceResource: List&amp;lt;ReferenceResource&amp;gt;&lt;/p&gt;&lt;hr size=&quot;1&quot; style=&quot;border-style:solid;&quot;&gt;&lt;p style=&quot;margin:0px;margin-left:4px;&quot;&gt;+ play()&lt;/p&gt;" style="verticalAlign=top;align=left;overflow=fill;html=1;whiteSpace=wrap;" vertex="1" parent="1">
          <mxGeometry x="-700" y="750" width="310" height="140" as="geometry" />
        </mxCell>
        <mxCell id="6PLrGCG0lRcQRCeHkaM_-97" value="&lt;p style=&quot;margin:0px;margin-top:4px;text-align:center;&quot;&gt;&lt;i&gt;&amp;lt;&amp;lt;entity&amp;gt;&amp;gt;&lt;/i&gt;&lt;br&gt;&lt;b&gt;Question&lt;/b&gt;&lt;/p&gt;&lt;hr size=&quot;1&quot; style=&quot;border-style:solid;&quot;&gt;&lt;p style=&quot;margin:0px;margin-left:4px;&quot;&gt;- id: int&lt;br&gt;- description: string&lt;/p&gt;&lt;p style=&quot;margin:0px;margin-left:4px;&quot;&gt;- answers: List&amp;lt;Answer&amp;gt;&lt;/p&gt;&lt;p style=&quot;margin:0px;margin-left:4px;&quot;&gt;- answerText: string&lt;/p&gt;&lt;hr size=&quot;1&quot; style=&quot;border-style:solid;&quot;&gt;&lt;p style=&quot;margin:0px;margin-left:4px;&quot;&gt;&lt;br&gt;&lt;/p&gt;" style="verticalAlign=top;align=left;overflow=fill;html=1;whiteSpace=wrap;" vertex="1" parent="1">
          <mxGeometry x="-1320" y="465" width="190" height="130" as="geometry" />
        </mxCell>
        <mxCell id="6PLrGCG0lRcQRCeHkaM_-98" value="&lt;p style=&quot;margin:0px;margin-top:4px;text-align:center;&quot;&gt;&lt;i&gt;&amp;lt;&amp;lt;entity&amp;gt;&amp;gt;&lt;/i&gt;&lt;br&gt;&lt;b&gt;Answer&lt;/b&gt;&lt;/p&gt;&lt;hr size=&quot;1&quot; style=&quot;border-style:solid;&quot;&gt;&lt;p style=&quot;margin:0px;margin-left:4px;&quot;&gt;- id: int&lt;br&gt;- text: string&lt;/p&gt;&lt;p style=&quot;margin:0px;margin-left:4px;&quot;&gt;- isCorrect: boolean&lt;/p&gt;&lt;p style=&quot;margin:0px;margin-left:4px;&quot;&gt;- isFromStudent: boolean&lt;/p&gt;&lt;p style=&quot;margin:0px;margin-left:4px;&quot;&gt;- question: Question&lt;/p&gt;&lt;hr size=&quot;1&quot; style=&quot;border-style:solid;&quot;&gt;&lt;p style=&quot;margin:0px;margin-left:4px;&quot;&gt;&lt;br&gt;&lt;/p&gt;" style="verticalAlign=top;align=left;overflow=fill;html=1;whiteSpace=wrap;" vertex="1" parent="1">
          <mxGeometry x="-1320" y="665" width="190" height="140" as="geometry" />
        </mxCell>
        <mxCell id="6PLrGCG0lRcQRCeHkaM_-99" value="&lt;p style=&quot;margin:0px;margin-top:4px;text-align:center;&quot;&gt;&lt;i&gt;&amp;lt;&amp;lt;entity&amp;gt;&amp;gt;&lt;/i&gt;&lt;br&gt;&lt;b&gt;ReferenceResource&lt;/b&gt;&lt;/p&gt;&lt;hr size=&quot;1&quot; style=&quot;border-style:solid;&quot;&gt;&lt;p style=&quot;margin:0px;margin-left:4px;&quot;&gt;- id: int&lt;br&gt;- title: string&lt;/p&gt;&lt;p style=&quot;margin:0px;margin-left:4px;&quot;&gt;- type: string&lt;/p&gt;&lt;p style=&quot;margin:0px;margin-left:4px;&quot;&gt;- url: string&lt;/p&gt;&lt;hr size=&quot;1&quot; style=&quot;border-style:solid;&quot;&gt;&lt;p style=&quot;margin:0px;margin-left:4px;&quot;&gt;+ access()&lt;/p&gt;" style="verticalAlign=top;align=left;overflow=fill;html=1;whiteSpace=wrap;" vertex="1" parent="1">
          <mxGeometry x="-255" y="750" width="190" height="140" as="geometry" />
        </mxCell>
        <mxCell id="6PLrGCG0lRcQRCeHkaM_-100" value="&lt;p style=&quot;margin:0px;margin-top:4px;text-align:center;&quot;&gt;&lt;i&gt;&amp;lt;&amp;lt;entity&amp;gt;&amp;gt;&lt;/i&gt;&lt;br&gt;&lt;b&gt;Report&lt;/b&gt;&lt;/p&gt;&lt;hr size=&quot;1&quot; style=&quot;border-style:solid;&quot;&gt;&lt;p style=&quot;margin:0px;margin-left:4px;&quot;&gt;- id: int&lt;br&gt;- student: Student&lt;/p&gt;&lt;p style=&quot;margin:0px;margin-left:4px;&quot;&gt;- exam: Exam&lt;/p&gt;&lt;p style=&quot;margin:0px;margin-left:4px;&quot;&gt;- score: float&lt;/p&gt;&lt;p style=&quot;margin:0px;margin-left:4px;&quot;&gt;- timestamp: Date&lt;/p&gt;&lt;hr size=&quot;1&quot; style=&quot;border-style:solid;&quot;&gt;&lt;p style=&quot;margin:0px;margin-left:4px;&quot;&gt;+ generateFile()&lt;/p&gt;" style="verticalAlign=top;align=left;overflow=fill;html=1;whiteSpace=wrap;" vertex="1" parent="1">
          <mxGeometry x="-1600" y="321.25" width="190" height="160" as="geometry" />
        </mxCell>
        <mxCell id="6PLrGCG0lRcQRCeHkaM_-109" value="" style="endArrow=open;html=1;endSize=12;startArrow=diamondThin;startSize=14;startFill=0;edgeStyle=orthogonalEdgeStyle;rounded=0;exitX=0.5;exitY=0;exitDx=0;exitDy=0;entryX=0.5;entryY=1;entryDx=0;entryDy=0;" edge="1" parent="1" source="6PLrGCG0lRcQRCeHkaM_-98" target="6PLrGCG0lRcQRCeHkaM_-97">
          <mxGeometry relative="1" as="geometry">
            <mxPoint x="-1020" y="554.5699999999999" as="sourcePoint" />
            <mxPoint x="-860" y="554.5699999999999" as="targetPoint" />
            <mxPoint as="offset" />
          </mxGeometry>
        </mxCell>
        <mxCell id="6PLrGCG0lRcQRCeHkaM_-110" value="1..n" style="edgeLabel;resizable=0;html=1;align=left;verticalAlign=top;" connectable="0" vertex="1" parent="6PLrGCG0lRcQRCeHkaM_-109">
          <mxGeometry x="-1" relative="1" as="geometry">
            <mxPoint x="15" y="-30" as="offset" />
          </mxGeometry>
        </mxCell>
        <mxCell id="6PLrGCG0lRcQRCeHkaM_-111" value="1" style="edgeLabel;resizable=0;html=1;align=right;verticalAlign=top;" connectable="0" vertex="1" parent="6PLrGCG0lRcQRCeHkaM_-109">
          <mxGeometry x="1" relative="1" as="geometry">
            <mxPoint x="25" as="offset" />
          </mxGeometry>
        </mxCell>
        <mxCell id="6PLrGCG0lRcQRCeHkaM_-118" value="" style="endArrow=open;html=1;endSize=12;startArrow=diamondThin;startSize=14;startFill=0;edgeStyle=orthogonalEdgeStyle;rounded=0;exitX=1;exitY=0.5;exitDx=0;exitDy=0;" edge="1" parent="1" source="6PLrGCG0lRcQRCeHkaM_-97">
          <mxGeometry relative="1" as="geometry">
            <mxPoint x="-1110" y="555" as="sourcePoint" />
            <mxPoint x="-1020" y="530" as="targetPoint" />
            <mxPoint as="offset" />
          </mxGeometry>
        </mxCell>
        <mxCell id="6PLrGCG0lRcQRCeHkaM_-119" value="1..n" style="edgeLabel;resizable=0;html=1;align=left;verticalAlign=top;" connectable="0" vertex="1" parent="6PLrGCG0lRcQRCeHkaM_-118">
          <mxGeometry x="-1" relative="1" as="geometry">
            <mxPoint x="15" y="-30" as="offset" />
          </mxGeometry>
        </mxCell>
        <mxCell id="6PLrGCG0lRcQRCeHkaM_-120" value="1" style="edgeLabel;resizable=0;html=1;align=right;verticalAlign=top;" connectable="0" vertex="1" parent="6PLrGCG0lRcQRCeHkaM_-118">
          <mxGeometry x="1" relative="1" as="geometry">
            <mxPoint x="-10" y="-30" as="offset" />
          </mxGeometry>
        </mxCell>
        <mxCell id="6PLrGCG0lRcQRCeHkaM_-126" value="" style="endArrow=open;html=1;endSize=12;startArrow=diamondThin;startSize=14;startFill=0;edgeStyle=orthogonalEdgeStyle;rounded=0;exitX=0.5;exitY=0;exitDx=0;exitDy=0;entryX=0;entryY=0.5;entryDx=0;entryDy=0;" edge="1" parent="1">
          <mxGeometry relative="1" as="geometry">
            <mxPoint x="-610" y="321.25" as="sourcePoint" />
            <mxPoint x="-370" y="181.25" as="targetPoint" />
            <mxPoint as="offset" />
            <Array as="points">
              <mxPoint x="-610" y="181.25" />
            </Array>
          </mxGeometry>
        </mxCell>
        <mxCell id="6PLrGCG0lRcQRCeHkaM_-127" value="0..n" style="edgeLabel;resizable=0;html=1;align=left;verticalAlign=top;" connectable="0" vertex="1" parent="6PLrGCG0lRcQRCeHkaM_-126">
          <mxGeometry x="-1" relative="1" as="geometry">
            <mxPoint x="10" y="-40" as="offset" />
          </mxGeometry>
        </mxCell>
        <mxCell id="6PLrGCG0lRcQRCeHkaM_-128" value="1" style="edgeLabel;resizable=0;html=1;align=right;verticalAlign=top;" connectable="0" vertex="1" parent="1">
          <mxGeometry x="-390" y="181.25" as="geometry" />
        </mxCell>
        <mxCell id="6PLrGCG0lRcQRCeHkaM_-129" value="" style="group" vertex="1" connectable="0" parent="1">
          <mxGeometry x="-1580" y="-230" width="890" height="450" as="geometry" />
        </mxCell>
        <mxCell id="6PLrGCG0lRcQRCeHkaM_-83" value="&lt;p style=&quot;margin:0px;margin-top:4px;text-align:center;&quot;&gt;&lt;i&gt;&amp;lt;&amp;lt;entity&amp;gt;&amp;gt;&lt;/i&gt;&lt;br&gt;&lt;b&gt;User&lt;/b&gt;&lt;/p&gt;&lt;hr size=&quot;1&quot; style=&quot;border-style:solid;&quot;&gt;&lt;p style=&quot;margin:0px;margin-left:4px;&quot;&gt;- id: int&lt;br&gt;- username: string&lt;/p&gt;&lt;p style=&quot;margin:0px;margin-left:4px;&quot;&gt;- password: string&lt;/p&gt;&lt;p style=&quot;margin:0px;margin-left:4px;&quot;&gt;- email: string&lt;/p&gt;&lt;hr size=&quot;1&quot; style=&quot;border-style:solid;&quot;&gt;&lt;p style=&quot;margin:0px;margin-left:4px;&quot;&gt;+ login(string): Object&lt;br&gt;+ logout()&lt;/p&gt;" style="verticalAlign=top;align=left;overflow=fill;html=1;whiteSpace=wrap;" vertex="1" parent="6PLrGCG0lRcQRCeHkaM_-129">
          <mxGeometry x="295" width="190" height="160" as="geometry" />
        </mxCell>
        <mxCell id="6PLrGCG0lRcQRCeHkaM_-85" value="" style="endArrow=block;endSize=16;endFill=0;html=1;rounded=0;exitX=0.5;exitY=0;exitDx=0;exitDy=0;" edge="1" parent="6PLrGCG0lRcQRCeHkaM_-129" source="6PLrGCG0lRcQRCeHkaM_-88">
          <mxGeometry width="160" relative="1" as="geometry">
            <mxPoint x="389.62" y="240" as="sourcePoint" />
            <mxPoint x="389.62" y="160" as="targetPoint" />
          </mxGeometry>
        </mxCell>
        <mxCell id="6PLrGCG0lRcQRCeHkaM_-86" value="&lt;p style=&quot;margin:0px;margin-top:4px;text-align:center;&quot;&gt;&lt;i&gt;&amp;lt;&amp;lt;entity&amp;gt;&amp;gt;&lt;/i&gt;&lt;br&gt;&lt;b&gt;Administrator&lt;/b&gt;&lt;/p&gt;&lt;hr size=&quot;1&quot; style=&quot;border-style:solid;&quot;&gt;&lt;p style=&quot;margin:0px;margin-left:4px;&quot;&gt;&lt;br&gt;&lt;/p&gt;&lt;hr size=&quot;1&quot; style=&quot;border-style:solid;&quot;&gt;&lt;p style=&quot;margin:0px;margin-left:4px;&quot;&gt;+ createSubject(string): Subject&lt;br&gt;+ approveCourse(Course)&lt;/p&gt;&lt;p style=&quot;margin:0px;margin-left:4px;&quot;&gt;+ approveEbook(Ebook)&lt;/p&gt;&lt;p style=&quot;margin:0px;margin-left:4px;&quot;&gt;+ approveExam(Exam)&lt;/p&gt;" style="verticalAlign=top;align=left;overflow=fill;html=1;whiteSpace=wrap;" vertex="1" parent="6PLrGCG0lRcQRCeHkaM_-129">
          <mxGeometry y="280" width="190" height="140" as="geometry" />
        </mxCell>
        <mxCell id="6PLrGCG0lRcQRCeHkaM_-88" value="&lt;p style=&quot;margin:0px;margin-top:4px;text-align:center;&quot;&gt;&lt;i&gt;&amp;lt;&amp;lt;entity&amp;gt;&amp;gt;&lt;/i&gt;&lt;br&gt;&lt;b&gt;Student&lt;/b&gt;&lt;/p&gt;&lt;hr size=&quot;1&quot; style=&quot;border-style:solid;&quot;&gt;&lt;p style=&quot;margin:0px;margin-left:4px;&quot;&gt;- enrolledCourses: List&amp;lt;Course&amp;gt;&lt;br&gt;&lt;/p&gt;&lt;p style=&quot;margin:0px;margin-left:4px;&quot;&gt;- takenExams: List&amp;lt;Exam&amp;gt;&lt;/p&gt;&lt;hr size=&quot;1&quot; style=&quot;border-style:solid;&quot;&gt;&lt;p style=&quot;margin:0px;margin-left:4px;&quot;&gt;+ watchVideo(Video)&lt;/p&gt;&lt;p style=&quot;margin:0px;margin-left:4px;&quot;&gt;+ enrollCourse(Course)&lt;/p&gt;&lt;p style=&quot;margin:0px;margin-left:4px;&quot;&gt;+ enrollExam(Exam)&lt;br&gt;+ doExam(Exam)&lt;/p&gt;&lt;p style=&quot;margin:0px;margin-left:4px;&quot;&gt;+ checkExamResult(Exam)&lt;/p&gt;&lt;p style=&quot;margin:0px;margin-left:4px;&quot;&gt;+ checkReferenceResource(ReferenceResource)&lt;/p&gt;&lt;p style=&quot;margin:0px;margin-left:4px;&quot;&gt;+ readEbook(Ebook)&lt;/p&gt;" style="verticalAlign=top;align=left;overflow=fill;html=1;whiteSpace=wrap;" vertex="1" parent="6PLrGCG0lRcQRCeHkaM_-129">
          <mxGeometry x="240" y="250" width="300" height="200" as="geometry" />
        </mxCell>
        <mxCell id="6PLrGCG0lRcQRCeHkaM_-95" value="&lt;p style=&quot;margin:0px;margin-top:4px;text-align:center;&quot;&gt;&lt;i&gt;&amp;lt;&amp;lt;entity&amp;gt;&amp;gt;&lt;/i&gt;&lt;br&gt;&lt;b&gt;Teacher&lt;/b&gt;&lt;/p&gt;&lt;hr size=&quot;1&quot; style=&quot;border-style:solid;&quot;&gt;&lt;p style=&quot;margin:0px;margin-left:4px;&quot;&gt;- taughtCoures: List&amp;lt;Course&amp;gt;&lt;/p&gt;&lt;hr size=&quot;1&quot; style=&quot;border-style:solid;&quot;&gt;&lt;p style=&quot;margin:0px;margin-left:4px;&quot;&gt;&lt;span style=&quot;background-color: transparent; color: light-dark(rgb(0, 0, 0), rgb(255, 255, 255));&quot;&gt;+ registerCourse(Course)&lt;/span&gt;&lt;/p&gt;&lt;p style=&quot;margin:0px;margin-left:4px;&quot;&gt;+ registerExam(Exam)&lt;/p&gt;&lt;p style=&quot;margin:0px;margin-left:4px;&quot;&gt;&lt;span style=&quot;background-color: transparent; color: light-dark(rgb(0, 0, 0), rgb(255, 255, 255));&quot;&gt;+ submitVideoCourse(Video)&lt;/span&gt;&lt;br&gt;&lt;/p&gt;&lt;p style=&quot;margin:0px;margin-left:4px;&quot;&gt;+ addReferenceResource(ReferenceResource)&lt;/p&gt;&lt;p style=&quot;margin:0px;margin-left:4px;&quot;&gt;+ registerEbook(Ebook)&lt;/p&gt;" style="verticalAlign=top;align=left;overflow=fill;html=1;whiteSpace=wrap;" vertex="1" parent="6PLrGCG0lRcQRCeHkaM_-129">
          <mxGeometry x="590" y="280" width="300" height="160" as="geometry" />
        </mxCell>
        <mxCell id="6PLrGCG0lRcQRCeHkaM_-102" value="" style="endArrow=block;endSize=16;endFill=0;html=1;rounded=0;exitX=0.5;exitY=0;exitDx=0;exitDy=0;" edge="1" parent="6PLrGCG0lRcQRCeHkaM_-129" source="6PLrGCG0lRcQRCeHkaM_-86">
          <mxGeometry width="160" relative="1" as="geometry">
            <mxPoint x="70" y="268.8900000000001" as="sourcePoint" />
            <mxPoint x="290" y="160" as="targetPoint" />
          </mxGeometry>
        </mxCell>
        <mxCell id="6PLrGCG0lRcQRCeHkaM_-103" value="" style="endArrow=block;endSize=16;endFill=0;html=1;rounded=0;exitX=0.5;exitY=0;exitDx=0;exitDy=0;" edge="1" parent="6PLrGCG0lRcQRCeHkaM_-129" source="6PLrGCG0lRcQRCeHkaM_-95">
          <mxGeometry width="160" relative="1" as="geometry">
            <mxPoint x="80" y="278.8900000000001" as="sourcePoint" />
            <mxPoint x="490" y="160" as="targetPoint" />
          </mxGeometry>
        </mxCell>
        <mxCell id="6PLrGCG0lRcQRCeHkaM_-137" value="" style="endArrow=open;html=1;endSize=12;startArrow=diamondThin;startSize=14;startFill=0;edgeStyle=orthogonalEdgeStyle;rounded=0;entryX=0;entryY=0.5;entryDx=0;entryDy=0;" edge="1" parent="1" target="6PLrGCG0lRcQRCeHkaM_-91">
          <mxGeometry relative="1" as="geometry">
            <mxPoint x="-930" y="440" as="sourcePoint" />
            <mxPoint x="-770" y="440" as="targetPoint" />
            <Array as="points">
              <mxPoint x="-930" y="411" />
            </Array>
          </mxGeometry>
        </mxCell>
        <mxCell id="6PLrGCG0lRcQRCeHkaM_-138" value="0..n" style="edgeLabel;resizable=0;html=1;align=left;verticalAlign=top;" connectable="0" vertex="1" parent="6PLrGCG0lRcQRCeHkaM_-137">
          <mxGeometry x="-1" relative="1" as="geometry">
            <mxPoint x="10" y="-30" as="offset" />
          </mxGeometry>
        </mxCell>
        <mxCell id="6PLrGCG0lRcQRCeHkaM_-139" value="1" style="edgeLabel;resizable=0;html=1;align=right;verticalAlign=top;" connectable="0" vertex="1" parent="6PLrGCG0lRcQRCeHkaM_-137">
          <mxGeometry x="1" relative="1" as="geometry">
            <mxPoint x="-20" as="offset" />
          </mxGeometry>
        </mxCell>
        <mxCell id="6PLrGCG0lRcQRCeHkaM_-142" value="" style="endArrow=open;html=1;endSize=12;startArrow=diamondThin;startSize=14;startFill=0;edgeStyle=orthogonalEdgeStyle;rounded=0;exitX=0.5;exitY=0;exitDx=0;exitDy=0;entryX=0.5;entryY=1;entryDx=0;entryDy=0;" edge="1" parent="1" source="6PLrGCG0lRcQRCeHkaM_-92" target="6PLrGCG0lRcQRCeHkaM_-90">
          <mxGeometry relative="1" as="geometry">
            <mxPoint x="-30" y="220" as="sourcePoint" />
            <mxPoint x="210" y="80" as="targetPoint" />
            <mxPoint as="offset" />
            <Array as="points">
              <mxPoint x="-240" y="350" />
              <mxPoint x="-275" y="350" />
            </Array>
          </mxGeometry>
        </mxCell>
        <mxCell id="6PLrGCG0lRcQRCeHkaM_-143" value="0..n" style="edgeLabel;resizable=0;html=1;align=left;verticalAlign=top;" connectable="0" vertex="1" parent="6PLrGCG0lRcQRCeHkaM_-142">
          <mxGeometry x="-1" relative="1" as="geometry">
            <mxPoint x="10" y="-30" as="offset" />
          </mxGeometry>
        </mxCell>
        <mxCell id="6PLrGCG0lRcQRCeHkaM_-144" value="1" style="edgeLabel;resizable=0;html=1;align=right;verticalAlign=top;" connectable="0" vertex="1" parent="1">
          <mxGeometry x="-260" y="270" as="geometry" />
        </mxCell>
        <mxCell id="6PLrGCG0lRcQRCeHkaM_-145" value="" style="endArrow=open;html=1;endSize=12;startArrow=diamondThin;startSize=14;startFill=0;edgeStyle=orthogonalEdgeStyle;rounded=0;entryX=0.5;entryY=1;entryDx=0;entryDy=0;exitX=0.5;exitY=0;exitDx=0;exitDy=0;" edge="1" parent="1" source="6PLrGCG0lRcQRCeHkaM_-96" target="6PLrGCG0lRcQRCeHkaM_-91">
          <mxGeometry relative="1" as="geometry">
            <mxPoint x="-305" y="500" as="sourcePoint" />
            <mxPoint x="-440" y="450" as="targetPoint" />
            <mxPoint as="offset" />
            <Array as="points">
              <mxPoint x="-545" y="590" />
              <mxPoint x="-605" y="590" />
            </Array>
          </mxGeometry>
        </mxCell>
        <mxCell id="6PLrGCG0lRcQRCeHkaM_-146" value="0..n" style="edgeLabel;resizable=0;html=1;align=left;verticalAlign=top;" connectable="0" vertex="1" parent="6PLrGCG0lRcQRCeHkaM_-145">
          <mxGeometry x="-1" relative="1" as="geometry">
            <mxPoint x="10" y="-40" as="offset" />
          </mxGeometry>
        </mxCell>
        <mxCell id="6PLrGCG0lRcQRCeHkaM_-147" value="1" style="edgeLabel;resizable=0;html=1;align=left;verticalAlign=top;" connectable="0" vertex="1" parent="1">
          <mxGeometry x="-620" y="520" as="geometry" />
        </mxCell>
        <mxCell id="6PLrGCG0lRcQRCeHkaM_-148" value="Use" style="endArrow=open;endSize=12;dashed=1;html=1;rounded=0;exitX=1;exitY=0.5;exitDx=0;exitDy=0;entryX=0;entryY=0.5;entryDx=0;entryDy=0;" edge="1" parent="1" source="6PLrGCG0lRcQRCeHkaM_-96" target="6PLrGCG0lRcQRCeHkaM_-99">
          <mxGeometry x="0.0028" width="160" relative="1" as="geometry">
            <mxPoint x="-160" y="710" as="sourcePoint" />
            <mxPoint x="10" y="510" as="targetPoint" />
            <mxPoint as="offset" />
          </mxGeometry>
        </mxCell>
        <mxCell id="6PLrGCG0lRcQRCeHkaM_-150" value="Use" style="endArrow=open;endSize=12;dashed=1;html=1;rounded=0;exitX=0.5;exitY=1;exitDx=0;exitDy=0;entryX=0.5;entryY=0;entryDx=0;entryDy=0;" edge="1" parent="1" source="6PLrGCG0lRcQRCeHkaM_-92" target="6PLrGCG0lRcQRCeHkaM_-99">
          <mxGeometry x="0.0028" width="160" relative="1" as="geometry">
            <mxPoint x="-140" y="581" as="sourcePoint" />
            <mxPoint x="20" y="655" as="targetPoint" />
            <mxPoint as="offset" />
          </mxGeometry>
        </mxCell>
        <mxCell id="6PLrGCG0lRcQRCeHkaM_-165" value="" style="endArrow=open;html=1;endSize=12;startArrow=diamondThin;startSize=14;startFill=0;edgeStyle=orthogonalEdgeStyle;rounded=0;entryX=0.5;entryY=1;entryDx=0;entryDy=0;exitX=1;exitY=0.5;exitDx=0;exitDy=0;" edge="1" parent="1" source="6PLrGCG0lRcQRCeHkaM_-100" target="6PLrGCG0lRcQRCeHkaM_-88">
          <mxGeometry relative="1" as="geometry">
            <mxPoint x="-1360" y="409" as="sourcePoint" />
            <mxPoint x="-1130" y="380" as="targetPoint" />
            <Array as="points">
              <mxPoint x="-1360" y="401" />
              <mxPoint x="-1360" y="400" />
              <mxPoint x="-1190" y="400" />
            </Array>
          </mxGeometry>
        </mxCell>
        <mxCell id="6PLrGCG0lRcQRCeHkaM_-166" value="0..n" style="edgeLabel;resizable=0;html=1;align=left;verticalAlign=top;" connectable="0" vertex="1" parent="6PLrGCG0lRcQRCeHkaM_-165">
          <mxGeometry x="-1" relative="1" as="geometry">
            <mxPoint x="10" y="-30" as="offset" />
          </mxGeometry>
        </mxCell>
        <mxCell id="6PLrGCG0lRcQRCeHkaM_-167" value="1" style="edgeLabel;resizable=0;html=1;align=right;verticalAlign=top;" connectable="0" vertex="1" parent="6PLrGCG0lRcQRCeHkaM_-165">
          <mxGeometry x="1" relative="1" as="geometry">
            <mxPoint x="-20" as="offset" />
          </mxGeometry>
        </mxCell>
        <mxCell id="6PLrGCG0lRcQRCeHkaM_-173" value="" style="endArrow=open;html=1;endSize=12;startArrow=diamondThin;startSize=14;startFill=0;edgeStyle=orthogonalEdgeStyle;rounded=0;entryX=0.5;entryY=1;entryDx=0;entryDy=0;exitX=0;exitY=0.25;exitDx=0;exitDy=0;" edge="1" parent="1" source="6PLrGCG0lRcQRCeHkaM_-91" target="6PLrGCG0lRcQRCeHkaM_-95">
          <mxGeometry relative="1" as="geometry">
            <mxPoint x="-920" y="450" as="sourcePoint" />
            <mxPoint x="-690" y="421" as="targetPoint" />
            <Array as="points">
              <mxPoint x="-840" y="366" />
            </Array>
          </mxGeometry>
        </mxCell>
        <mxCell id="6PLrGCG0lRcQRCeHkaM_-174" value="0..n" style="edgeLabel;resizable=0;html=1;align=left;verticalAlign=top;" connectable="0" vertex="1" parent="6PLrGCG0lRcQRCeHkaM_-173">
          <mxGeometry x="-1" relative="1" as="geometry">
            <mxPoint x="-30" y="-30" as="offset" />
          </mxGeometry>
        </mxCell>
        <mxCell id="6PLrGCG0lRcQRCeHkaM_-175" value="1" style="edgeLabel;resizable=0;html=1;align=right;verticalAlign=top;" connectable="0" vertex="1" parent="6PLrGCG0lRcQRCeHkaM_-173">
          <mxGeometry x="1" relative="1" as="geometry">
            <mxPoint x="-10" as="offset" />
          </mxGeometry>
        </mxCell>
      </root>
    </mxGraphModel>
  </diagram>
</mxfile>
